<svg width="1920" height="1080" viewBox="0 0 1920 1080" fill="none" xmlns="http://www.w3.org/2000/svg">
  <g filter="url(#a)">
    <ellipse cx="184.585" cy="229.077" rx="408" ry="601" transform="rotate(41.115 184.585 229.077)" fill="#230F66"/>
  </g>
  <g style="mix-blend-mode:hard-light" filter="url(#b)">
    <ellipse cx="52.941" cy="229.48" rx="286.896" ry="431.7" transform="rotate(7.76 52.94 229.48)" fill="#128DFF" fill-opacity=".3"/>
  </g>
  <g style="mix-blend-mode:hard-light" filter="url(#c)">
    <path d="M-20.937-75.257C2.446-59.402 33.734-50.941 36.49-16.281c1.091 13.722-9.192 31.2-16.546 41.587-9.24 13.048-22.674 21.16-35.064 29.93-30.32 21.46-65.337 31.2-91.885 59.15-23.912 25.176-36.893 63.859-33.781 99.629m204.24-318.389c2.376 11.854 3.607 23.363 8.54 34.26 5.277 11.656 10.201 23.989 12.86 36.784 5.688 27.388 20.224 88.198-7.133 108.633-13.78 10.294-31.521 13.511-46.23 22.068-7.774 4.522-13.222 15.61-18.937 22.779-18.7 23.455-35.335 54.112-41.572 84.812-4.538 22.336 4.982 43.793-9.008 63.246-11.351 15.783-38.543 23.779-55.166 28.479-17.651 4.991-32.543 7.169-47.688 19.935-23.97 20.205-48.924 40.452-68.344 66.013m315.83-470.776c-.149 2.785.5 5.646 1.048 8.325 2.579 12.619 3.676 25.598 5.747 38.342 2.207 13.581 4.265 28.228 9.662 40.752 3.499 8.12 9.038 14.28 14.021 21.227 14.889 20.759 36.432 34.49 58.314 44.97 11.41 5.463 24.544 6.893 36.487 10.74 14.389 4.634 18.036 10.431 19.948 26.662 2.558 21.709 1.43 53.266-12.537 71.53-4.489 5.87-13.062 9.721-19.154 12.882-8.558 4.439-17.946 7.901-27.345 8.479-20.61 1.269-41.185.074-60.981-5.829-16.455-4.907-33.426-7.587-49.792-12.755-13.423-4.239-23.363 1.483-35.874 7.452-20.214 9.644-22.755 37.515-29.36 57.969-10.201 31.586-30.046 54.321-46.706 82.031-10.06 16.734-19.808 30.833-33.554 44.252-9.791 9.56-20.893 16.784-31.74 24.715-15.966 11.676-29.343 26.19-43.863 39.83-13.537 12.716-23.041 29.231-38.152 39.736-10.32 7.173-24.024 13.026-24.555 28.041m484.621-603.473c-3.551 36.812 2.505 74.214 5.67 110.597 1.522 17.49 8.842 27.316 14.733 42.896 5.388 14.251 5.577 27.85 7.001 42.844 1.486 15.638-1.594 27.405-3.71 42.932-2.045 15-8.522 25.888-14.26 39.4-13.537 31.875-32.577 61.449-54.82 86.963-9.468 10.861-28.402 20.977-41.909 22.427-21.235 2.281-42.765 1.472-64.113 3.556-15.57 1.52-31.232 1.48-46.496 5.957-27.826 8.162-52.167 33.229-69.465 57.921-17.73 25.31-28.235 55.129-48.579 78.616-16.976 19.599-36.058 38.148-54.2 56.45-13.895 14.017-26.596 28.093-41.106 41.296-9.869 8.98-19.696 15.874-31.147 21.982-3.843 2.05-12.055 5.212-9.69 10.7" stroke="#0094FF" stroke-width="5.2" stroke-linecap="round"/>
  </g>
  <g style="mix-blend-mode:hard-light" filter="url(#d)">
    <path d="M-20.937-75.257C2.446-59.402 33.734-50.941 36.49-16.281c1.091 13.722-9.192 31.2-16.546 41.587-9.24 13.048-22.674 21.16-35.064 29.93-30.32 21.46-65.337 31.2-91.885 59.15-23.912 25.176-36.893 63.859-33.781 99.629m204.24-318.389c2.376 11.854 3.607 23.363 8.54 34.26 5.277 11.656 10.201 23.989 12.86 36.784 5.688 27.388 20.224 88.198-7.133 108.633-13.78 10.294-31.521 13.511-46.23 22.068-7.774 4.522-13.222 15.61-18.937 22.779-18.7 23.455-35.335 54.112-41.572 84.812-4.538 22.336 4.982 43.793-9.008 63.246-11.351 15.783-38.543 23.779-55.166 28.479-17.651 4.991-32.543 7.169-47.688 19.935-23.97 20.205-48.924 40.452-68.344 66.013m315.83-470.776c-.149 2.785.5 5.646 1.048 8.325 2.579 12.619 3.676 25.598 5.747 38.342 2.207 13.581 4.265 28.228 9.662 40.752 3.499 8.12 9.038 14.28 14.021 21.227 14.889 20.759 36.432 34.49 58.314 44.97 11.41 5.463 24.544 6.893 36.487 10.74 14.389 4.634 18.036 10.431 19.948 26.662 2.558 21.709 1.43 53.266-12.537 71.53-4.489 5.87-13.062 9.721-19.154 12.882-8.558 4.439-17.946 7.901-27.345 8.479-20.61 1.269-41.185.074-60.981-5.829-16.455-4.907-33.426-7.587-49.792-12.755-13.423-4.239-23.363 1.483-35.874 7.452-20.214 9.644-22.755 37.515-29.36 57.969-10.201 31.586-30.046 54.321-46.706 82.031-10.06 16.734-19.808 30.833-33.554 44.252-9.791 9.56-20.893 16.784-31.74 24.715-15.966 11.676-29.343 26.19-43.863 39.83-13.537 12.716-23.041 29.231-38.152 39.736-10.32 7.173-24.024 13.026-24.555 28.041m484.621-603.473c-3.551 36.812 2.505 74.214 5.67 110.597 1.522 17.49 8.842 27.316 14.733 42.896 5.388 14.251 5.577 27.85 7.001 42.844 1.486 15.638-1.594 27.405-3.71 42.932-2.045 15-8.522 25.888-14.26 39.4-13.537 31.875-32.577 61.449-54.82 86.963-9.468 10.861-28.402 20.977-41.909 22.427-21.235 2.281-42.765 1.472-64.113 3.556-15.57 1.52-31.232 1.48-46.496 5.957-27.826 8.162-52.167 33.229-69.465 57.921-17.73 25.31-28.235 55.129-48.579 78.616-16.976 19.599-36.058 38.148-54.2 56.45-13.895 14.017-26.596 28.093-41.106 41.296-9.869 8.98-19.696 15.874-31.147 21.982-3.843 2.05-12.055 5.212-9.69 10.7" stroke="#0094FF" stroke-width="6.8" stroke-linecap="round"/>
  </g>
  <g style="mix-blend-mode:hard-light" filter="url(#e)">
    <path d="M-20.937-75.257C2.446-59.402 33.734-50.941 36.49-16.281c1.091 13.722-9.192 31.2-16.546 41.587-9.24 13.048-22.674 21.16-35.064 29.93-30.32 21.46-65.337 31.2-91.885 59.15-23.912 25.176-36.893 63.859-33.781 99.629m204.24-318.389c2.376 11.854 3.607 23.363 8.54 34.26 5.277 11.656 10.201 23.989 12.86 36.784 5.688 27.388 20.224 88.198-7.133 108.633-13.78 10.294-31.521 13.511-46.23 22.068-7.774 4.522-13.222 15.61-18.937 22.779-18.7 23.455-35.335 54.112-41.572 84.812-4.538 22.336 4.982 43.793-9.008 63.246-11.351 15.783-38.543 23.779-55.166 28.479-17.651 4.991-32.543 7.169-47.688 19.935-23.97 20.205-48.924 40.452-68.344 66.013m315.83-470.776c-.149 2.785.5 5.646 1.048 8.325 2.579 12.619 3.676 25.598 5.747 38.342 2.207 13.581 4.265 28.228 9.662 40.752 3.499 8.12 9.038 14.28 14.021 21.227 14.889 20.759 36.432 34.49 58.314 44.97 11.41 5.463 24.544 6.893 36.487 10.74 14.389 4.634 18.036 10.431 19.948 26.662 2.558 21.709 1.43 53.266-12.537 71.53-4.489 5.87-13.062 9.721-19.154 12.882-8.558 4.439-17.946 7.901-27.345 8.479-20.61 1.269-41.185.074-60.981-5.829-16.455-4.907-33.426-7.587-49.792-12.755-13.423-4.239-23.363 1.483-35.874 7.452-20.214 9.644-22.755 37.515-29.36 57.969-10.201 31.586-30.046 54.321-46.706 82.031-10.06 16.734-19.808 30.833-33.554 44.252-9.791 9.56-20.893 16.784-31.74 24.715-15.966 11.676-29.343 26.19-43.863 39.83-13.537 12.716-23.041 29.231-38.152 39.736-10.32 7.173-24.024 13.026-24.555 28.041m484.621-603.473c-3.551 36.812 2.505 74.214 5.67 110.597 1.522 17.49 8.842 27.316 14.733 42.896 5.388 14.251 5.577 27.85 7.001 42.844 1.486 15.638-1.594 27.405-3.71 42.932-2.045 15-8.522 25.888-14.26 39.4-13.537 31.875-32.577 61.449-54.82 86.963-9.468 10.861-28.402 20.977-41.909 22.427-21.235 2.281-42.765 1.472-64.113 3.556-15.57 1.52-31.232 1.48-46.496 5.957-27.826 8.162-52.167 33.229-69.465 57.921-17.73 25.31-28.235 55.129-48.579 78.616-16.976 19.599-36.058 38.148-54.2 56.45-13.895 14.017-26.596 28.093-41.106 41.296-9.869 8.98-19.696 15.874-31.147 21.982-3.843 2.05-12.055 5.212-9.69 10.7" stroke="#00B3FF" stroke-opacity=".2" stroke-width="5.2" stroke-linecap="round"/>
  </g>
  <g filter="url(#f)">
    <path d="M-20.937-75.257C2.446-59.402 33.734-50.941 36.49-16.281c1.091 13.722-9.192 31.2-16.546 41.587-9.24 13.048-22.674 21.16-35.064 29.93-30.32 21.46-65.337 31.2-91.885 59.15-23.912 25.176-36.893 63.859-33.781 99.629m204.24-318.389c2.376 11.854 3.607 23.363 8.54 34.26 5.277 11.656 10.201 23.989 12.86 36.784 5.688 27.388 20.224 88.198-7.133 108.633-13.78 10.294-31.521 13.511-46.23 22.068-7.774 4.522-13.222 15.61-18.937 22.779-18.7 23.455-35.335 54.112-41.572 84.812-4.538 22.336 4.982 43.793-9.008 63.246-11.351 15.783-38.543 23.779-55.166 28.479-17.651 4.991-32.543 7.169-47.688 19.935-23.97 20.205-48.924 40.452-68.344 66.013m315.83-470.776c-.149 2.785.5 5.646 1.048 8.325 2.579 12.619 3.676 25.598 5.747 38.342 2.207 13.581 4.265 28.228 9.662 40.752 3.499 8.12 9.038 14.28 14.021 21.227 14.889 20.759 36.432 34.49 58.314 44.97 11.41 5.463 24.544 6.893 36.487 10.74 14.389 4.634 18.036 10.431 19.948 26.662 2.558 21.709 1.43 53.266-12.537 71.53-4.489 5.87-13.062 9.721-19.154 12.882-8.558 4.439-17.946 7.901-27.345 8.479-20.61 1.269-41.185.074-60.981-5.829-16.455-4.907-33.426-7.587-49.792-12.755-13.423-4.239-23.363 1.483-35.874 7.452-20.214 9.644-22.755 37.515-29.36 57.969-10.201 31.586-30.046 54.321-46.706 82.031-10.06 16.734-19.808 30.833-33.554 44.252-9.791 9.56-20.893 16.784-31.74 24.715-15.966 11.676-29.343 26.19-43.863 39.83-13.537 12.716-23.041 29.231-38.152 39.736-10.32 7.173-24.024 13.026-24.555 28.041m484.621-603.473c-3.551 36.812 2.505 74.214 5.67 110.597 1.522 17.49 8.842 27.316 14.733 42.896 5.388 14.251 5.577 27.85 7.001 42.844 1.486 15.638-1.594 27.405-3.71 42.932-2.045 15-8.522 25.888-14.26 39.4-13.537 31.875-32.577 61.449-54.82 86.963-9.468 10.861-28.402 20.977-41.909 22.427-21.235 2.281-42.765 1.472-64.113 3.556-15.57 1.52-31.232 1.48-46.496 5.957-27.826 8.162-52.167 33.229-69.465 57.921-17.73 25.31-28.235 55.129-48.579 78.616-16.976 19.599-36.058 38.148-54.2 56.45-13.895 14.017-26.596 28.093-41.106 41.296-9.869 8.98-19.696 15.874-31.147 21.982-3.843 2.05-12.055 5.212-9.69 10.7" stroke="#82D9FF" stroke-width="3.2" stroke-linecap="round"/>
  </g>
  <g filter="url(#g)">
    <path d="M-20.937-75.257C2.446-59.402 33.734-50.941 36.49-16.281c1.091 13.722-9.192 31.2-16.546 41.587-9.24 13.048-22.674 21.16-35.064 29.93-30.32 21.46-65.337 31.2-91.885 59.15-23.912 25.176-36.893 63.859-33.781 99.629m204.24-318.389c2.376 11.854 3.607 23.363 8.54 34.26 5.277 11.656 10.201 23.989 12.86 36.784 5.688 27.388 20.224 88.198-7.133 108.633-13.78 10.294-31.521 13.511-46.23 22.068-7.774 4.522-13.222 15.61-18.937 22.779-18.7 23.455-35.335 54.112-41.572 84.812-4.538 22.336 4.982 43.793-9.008 63.246-11.351 15.783-38.543 23.779-55.166 28.479-17.651 4.991-32.543 7.169-47.688 19.935-23.97 20.205-48.924 40.452-68.344 66.013m315.83-470.776c-.149 2.785.5 5.646 1.048 8.325 2.579 12.619 3.676 25.598 5.747 38.342 2.207 13.581 4.265 28.228 9.662 40.752 3.499 8.12 9.038 14.28 14.021 21.227 14.889 20.759 36.432 34.49 58.314 44.97 11.41 5.463 24.544 6.893 36.487 10.74 14.389 4.634 18.036 10.431 19.948 26.662 2.558 21.709 1.43 53.266-12.537 71.53-4.489 5.87-13.062 9.721-19.154 12.882-8.558 4.439-17.946 7.901-27.345 8.479-20.61 1.269-41.185.074-60.981-5.829-16.455-4.907-33.426-7.587-49.792-12.755-13.423-4.239-23.363 1.483-35.874 7.452-20.214 9.644-22.755 37.515-29.36 57.969-10.201 31.586-30.046 54.321-46.706 82.031-10.06 16.734-19.808 30.833-33.554 44.252-9.791 9.56-20.893 16.784-31.74 24.715-15.966 11.676-29.343 26.19-43.863 39.83-13.537 12.716-23.041 29.231-38.152 39.736-10.32 7.173-24.024 13.026-24.555 28.041m484.621-603.473c-3.551 36.812 2.505 74.214 5.67 110.597 1.522 17.49 8.842 27.316 14.733 42.896 5.388 14.251 5.577 27.85 7.001 42.844 1.486 15.638-1.594 27.405-3.71 42.932-2.045 15-8.522 25.888-14.26 39.4-13.537 31.875-32.577 61.449-54.82 86.963-9.468 10.861-28.402 20.977-41.909 22.427-21.235 2.281-42.765 1.472-64.113 3.556-15.57 1.52-31.232 1.48-46.496 5.957-27.826 8.162-52.167 33.229-69.465 57.921-17.73 25.31-28.235 55.129-48.579 78.616-16.976 19.599-36.058 38.148-54.2 56.45-13.895 14.017-26.596 28.093-41.106 41.296-9.869 8.98-19.696 15.874-31.147 21.982-3.843 2.05-12.055 5.212-9.69 10.7" stroke="#fff" stroke-width="1.6" stroke-linecap="round"/>
  </g>
  <g style="mix-blend-mode:hard-light" filter="url(#h)">
    <ellipse cx="1066.21" cy="1027.06" rx="1396.78" ry="514.132" transform="rotate(-21.322 1066.21 1027.06)" fill="#128DFF" fill-opacity=".3"/>
  </g>
  <g style="mix-blend-mode:hard-light" filter="url(#i)">
    <path d="M2227.78 801.766c-38.14-21.817-80.81-32.455-126.38-37.127-34.66-3.553-95.16-10.981-119.21 24.176-16.09 23.512-27.02 50.11-41.22 74.564-8.97 15.447-16.17 28.054-14.51 45.337 4.29 44.483-22.42 72.202-44.85 109.884-13.32 22.38-27.3 44.8-46.92 63.32-38.72 36.55-85.27 48.37-134.86 64.48m448.61-494.867c-69.68-11.378-155.74-11.786-219.64 28.289-33.81 21.2-50.79 53.295-72.06 83.938-24.91 35.875-59.12 66.694-86.79 100.936-25.88 32.029-50.8 64.013-80.12 93.598-36.59 36.929-83.47 62.896-119.61 101.016-23.15 24.43-44.05 49.4-72.18 69.33-41.69 29.55-89.74 49.75-130.26 80.89-65.72 50.53-115 120.88-170.11 180.84m829.55-822.094c-61.37-3.142-131.16 16.491-186.73 43.571-52.23 25.454-98.28 57.105-143.75 92.229-43.9 33.92-90.49 64.635-133.76 99.286-46.98 37.627-96.27 76.436-133.92 122.445-15.7 19.191-29.59 39.511-45.47 58.608-28.97 34.825-61.74 67.105-88.42 103.495-84.7 115.5-138.32 246.71-245.71 348.76-63.102 59.97-139.936 99.24-216.28 141.27M2019.2 456.821l-4.15 1.622c-54.68 21.337-110.05 42.944-162.07 70.067-47.32 24.675-92.65 52.912-138.9 79.383-33.66 19.262-67.99 37.448-101.5 56.937-31.76 18.477-61.04 40.092-93.54 57.532-32.61 17.503-70.24 23.49-104.62 37.135-34.07 13.524-69.06 30.847-99.99 50.278-43.69 27.458-55.18 85.099-80.91 124.403-18.17 27.754-44.37 50.389-60.75 79.232-14.24 25.06-29.01 50.95-42.53 76.26-14.76 27.62-23.21 55.83-40.79 82.39-6.69 10.11-11.73 20.59-17.44 31.08-5.86 10.79-17.29 19.93-24.83 29.83-14.83 19.46-26.58 40.01-38.49 60.92-7.01 12.28-16.644 20.07-25.585 30.85-8.387 10.12-16.4 21.1-26.216 30.08-15.901 14.53-35.927 24.27-53.127 37.31-40.841 30.97-84.118 54.43-130.122 77.88-48.812 24.89-97.421 49.89-133.734 90.1M1929.34 393.299c-36.01 14.056-68.62 34.235-104.22 48.676-30.51 12.374-59.94 27.037-90.22 39.95-24.68 10.529-47.71 13.313-73.2 19.985-50.23 13.152-99.91 27.297-150.48 39.195-40.35 9.494-83.3 17.356-122.34 31.318-31.73 11.352-57.95 25.221-86.43 42.914-25.03 15.553-35.94 40.885-58.96 58.988-23.34 18.365-44.25 38.211-68.89 55.017-10.16 6.931-18.33 14.072-30.21 18.157-20.38 7.008-40.42 10.42-59.73 20.8-26.58 14.281-69.07 35.389-81.58 62.929-32.16 70.797-32.212 147.318-36.606 220.652-2.278 38.03-26.981 81.59-51.749 111.99-29.143 35.77-60.312 70.56-94.901 102.03-30.045 27.34-68.912 41.7-94.506 73.16-32.09 39.44-53.619 84.16-78.76 126.96-11.848 20.18-34.689 31.77-54.928 43.65-27.447 16.11-52.458 30.13-82.89 40.2-41.112 13.6-81.533 29.25-116.556 54.97-19.817 14.55-36.584 35.46-54.636 51.97M1940.34 285.083c-53.12 24.238-105.88 35.244-161.28 51.106-56.23 16.103-111.3 35.817-168.04 50.193-109.51 27.749-233.13 43.206-330.37 106.155-69.43 44.942-117.29 112.904-184.94 160.121-29.53 20.61-56.33 40.266-83.67 63.452-48.014 40.714-104.603 71.029-153.662 110.606-62.57 50.476-110.366 122.063-131.572 195.394-21.589 74.66-34.961 148.7-73.339 219.16-18.558 34.07-35.66 69.88-57.421 102.5-15.406 23.1-39.595 38.53-63.022 54.06-34.124 22.61-67.886 44.62-99.532 70.38-55.178 44.91-104.186 90.42-165.551 128.13-48.012 29.5-102.933 56.82-142.712 96.56-12.351 12.34-22.367 28.85-31.773 43.19" stroke="#0094FF" stroke-width="5.2" stroke-linecap="round"/>
  </g>
  <g style="mix-blend-mode:hard-light" filter="url(#j)">
    <path d="M2227.78 801.766c-38.14-21.817-80.81-32.455-126.38-37.127-34.66-3.553-95.16-10.981-119.21 24.176-16.09 23.512-27.02 50.11-41.22 74.564-8.97 15.447-16.17 28.054-14.51 45.337 4.29 44.483-22.42 72.202-44.85 109.884-13.32 22.38-27.3 44.8-46.92 63.32-38.72 36.55-85.27 48.37-134.86 64.48m448.61-494.867c-69.68-11.378-155.74-11.786-219.64 28.289-33.81 21.2-50.79 53.295-72.06 83.938-24.91 35.875-59.12 66.694-86.79 100.936-25.88 32.029-50.8 64.013-80.12 93.598-36.59 36.929-83.47 62.896-119.61 101.016-23.15 24.43-44.05 49.4-72.18 69.33-41.69 29.55-89.74 49.75-130.26 80.89-65.72 50.53-115 120.88-170.11 180.84m829.55-822.094c-61.37-3.142-131.16 16.491-186.73 43.571-52.23 25.454-98.28 57.105-143.75 92.229-43.9 33.92-90.49 64.635-133.76 99.286-46.98 37.627-96.27 76.436-133.92 122.445-15.7 19.191-29.59 39.511-45.47 58.608-28.97 34.825-61.74 67.105-88.42 103.495-84.7 115.5-138.32 246.71-245.71 348.76-63.102 59.97-139.936 99.24-216.28 141.27M2019.2 456.821l-4.15 1.622c-54.68 21.337-110.05 42.944-162.07 70.067-47.32 24.675-92.65 52.912-138.9 79.383-33.66 19.262-67.99 37.448-101.5 56.937-31.76 18.477-61.04 40.092-93.54 57.532-32.61 17.503-70.24 23.49-104.62 37.135-34.07 13.524-69.06 30.847-99.99 50.278-43.69 27.458-55.18 85.099-80.91 124.403-18.17 27.754-44.37 50.389-60.75 79.232-14.24 25.06-29.01 50.95-42.53 76.26-14.76 27.62-23.21 55.83-40.79 82.39-6.69 10.11-11.73 20.59-17.44 31.08-5.86 10.79-17.29 19.93-24.83 29.83-14.83 19.46-26.58 40.01-38.49 60.92-7.01 12.28-16.644 20.07-25.585 30.85-8.387 10.12-16.4 21.1-26.216 30.08-15.901 14.53-35.927 24.27-53.127 37.31-40.841 30.97-84.118 54.43-130.122 77.88-48.812 24.89-97.421 49.89-133.734 90.1M1929.34 393.299c-36.01 14.056-68.62 34.235-104.22 48.676-30.51 12.374-59.94 27.037-90.22 39.95-24.68 10.529-47.71 13.313-73.2 19.985-50.23 13.152-99.91 27.297-150.48 39.195-40.35 9.494-83.3 17.356-122.34 31.318-31.73 11.352-57.95 25.221-86.43 42.914-25.03 15.553-35.94 40.885-58.96 58.988-23.34 18.365-44.25 38.211-68.89 55.017-10.16 6.931-18.33 14.072-30.21 18.157-20.38 7.008-40.42 10.42-59.73 20.8-26.58 14.281-69.07 35.389-81.58 62.929-32.16 70.797-32.212 147.318-36.606 220.652-2.278 38.03-26.981 81.59-51.749 111.99-29.143 35.77-60.312 70.56-94.901 102.03-30.045 27.34-68.912 41.7-94.506 73.16-32.09 39.44-53.619 84.16-78.76 126.96-11.848 20.18-34.689 31.77-54.928 43.65-27.447 16.11-52.458 30.13-82.89 40.2-41.112 13.6-81.533 29.25-116.556 54.97-19.817 14.55-36.584 35.46-54.636 51.97M1940.34 285.083c-53.12 24.238-105.88 35.244-161.28 51.106-56.23 16.103-111.3 35.817-168.04 50.193-109.51 27.749-233.13 43.206-330.37 106.155-69.43 44.942-117.29 112.904-184.94 160.121-29.53 20.61-56.33 40.266-83.67 63.452-48.014 40.714-104.603 71.029-153.662 110.606-62.57 50.476-110.366 122.063-131.572 195.394-21.589 74.66-34.961 148.7-73.339 219.16-18.558 34.07-35.66 69.88-57.421 102.5-15.406 23.1-39.595 38.53-63.022 54.06-34.124 22.61-67.886 44.62-99.532 70.38-55.178 44.91-104.186 90.42-165.551 128.13-48.012 29.5-102.933 56.82-142.712 96.56-12.351 12.34-22.367 28.85-31.773 43.19" stroke="#0094FF" stroke-width="6.8" stroke-linecap="round"/>
  </g>
  <g style="mix-blend-mode:hard-light" filter="url(#k)">
    <path d="M2227.78 801.766c-38.14-21.817-80.81-32.455-126.38-37.127-34.66-3.553-95.16-10.981-119.21 24.176-16.09 23.512-27.02 50.11-41.22 74.564-8.97 15.447-16.17 28.054-14.51 45.337 4.29 44.483-22.42 72.202-44.85 109.884-13.32 22.38-27.3 44.8-46.92 63.32-38.72 36.55-85.27 48.37-134.86 64.48m448.61-494.867c-69.68-11.378-155.74-11.786-219.64 28.289-33.81 21.2-50.79 53.295-72.06 83.938-24.91 35.875-59.12 66.694-86.79 100.936-25.88 32.029-50.8 64.013-80.12 93.598-36.59 36.929-83.47 62.896-119.61 101.016-23.15 24.43-44.05 49.4-72.18 69.33-41.69 29.55-89.74 49.75-130.26 80.89-65.72 50.53-115 120.88-170.11 180.84m829.55-822.094c-61.37-3.142-131.16 16.491-186.73 43.571-52.23 25.454-98.28 57.105-143.75 92.229-43.9 33.92-90.49 64.635-133.76 99.286-46.98 37.627-96.27 76.436-133.92 122.445-15.7 19.191-29.59 39.511-45.47 58.608-28.97 34.825-61.74 67.105-88.42 103.495-84.7 115.5-138.32 246.71-245.71 348.76-63.102 59.97-139.936 99.24-216.28 141.27M2019.2 456.821l-4.15 1.622c-54.68 21.337-110.05 42.944-162.07 70.067-47.32 24.675-92.65 52.912-138.9 79.383-33.66 19.262-67.99 37.448-101.5 56.937-31.76 18.477-61.04 40.092-93.54 57.532-32.61 17.503-70.24 23.49-104.62 37.135-34.07 13.524-69.06 30.847-99.99 50.278-43.69 27.458-55.18 85.099-80.91 124.403-18.17 27.754-44.37 50.389-60.75 79.232-14.24 25.06-29.01 50.95-42.53 76.26-14.76 27.62-23.21 55.83-40.79 82.39-6.69 10.11-11.73 20.59-17.44 31.08-5.86 10.79-17.29 19.93-24.83 29.83-14.83 19.46-26.58 40.01-38.49 60.92-7.01 12.28-16.644 20.07-25.585 30.85-8.387 10.12-16.4 21.1-26.216 30.08-15.901 14.53-35.927 24.27-53.127 37.31-40.841 30.97-84.118 54.43-130.122 77.88-48.812 24.89-97.421 49.89-133.734 90.1M1929.34 393.299c-36.01 14.056-68.62 34.235-104.22 48.676-30.51 12.374-59.94 27.037-90.22 39.95-24.68 10.529-47.71 13.313-73.2 19.985-50.23 13.152-99.91 27.297-150.48 39.195-40.35 9.494-83.3 17.356-122.34 31.318-31.73 11.352-57.95 25.221-86.43 42.914-25.03 15.553-35.94 40.885-58.96 58.988-23.34 18.365-44.25 38.211-68.89 55.017-10.16 6.931-18.33 14.072-30.21 18.157-20.38 7.008-40.42 10.42-59.73 20.8-26.58 14.281-69.07 35.389-81.58 62.929-32.16 70.797-32.212 147.318-36.606 220.652-2.278 38.03-26.981 81.59-51.749 111.99-29.143 35.77-60.312 70.56-94.901 102.03-30.045 27.34-68.912 41.7-94.506 73.16-32.09 39.44-53.619 84.16-78.76 126.96-11.848 20.18-34.689 31.77-54.928 43.65-27.447 16.11-52.458 30.13-82.89 40.2-41.112 13.6-81.533 29.25-116.556 54.97-19.817 14.55-36.584 35.46-54.636 51.97M1940.34 285.083c-53.12 24.238-105.88 35.244-161.28 51.106-56.23 16.103-111.3 35.817-168.04 50.193-109.51 27.749-233.13 43.206-330.37 106.155-69.43 44.942-117.29 112.904-184.94 160.121-29.53 20.61-56.33 40.266-83.67 63.452-48.014 40.714-104.603 71.029-153.662 110.606-62.57 50.476-110.366 122.063-131.572 195.394-21.589 74.66-34.961 148.7-73.339 219.16-18.558 34.07-35.66 69.88-57.421 102.5-15.406 23.1-39.595 38.53-63.022 54.06-34.124 22.61-67.886 44.62-99.532 70.38-55.178 44.91-104.186 90.42-165.551 128.13-48.012 29.5-102.933 56.82-142.712 96.56-12.351 12.34-22.367 28.85-31.773 43.19" stroke="#00B3FF" stroke-opacity=".2" stroke-width="5.2" stroke-linecap="round"/>
  </g>
  <g filter="url(#l)">
    <path d="M2227.78 801.766c-38.14-21.817-80.81-32.455-126.38-37.127-34.66-3.553-95.16-10.981-119.21 24.176-16.09 23.512-27.02 50.11-41.22 74.564-8.97 15.447-16.17 28.054-14.51 45.337 4.29 44.483-22.42 72.202-44.85 109.884-13.32 22.38-27.3 44.8-46.92 63.32-38.72 36.55-85.27 48.37-134.86 64.48m448.61-494.867c-69.68-11.378-155.74-11.786-219.64 28.289-33.81 21.2-50.79 53.295-72.06 83.938-24.91 35.875-59.12 66.694-86.79 100.936-25.88 32.029-50.8 64.013-80.12 93.598-36.59 36.929-83.47 62.896-119.61 101.016-23.15 24.43-44.05 49.4-72.18 69.33-41.69 29.55-89.74 49.75-130.26 80.89-65.72 50.53-115 120.88-170.11 180.84m829.55-822.094c-61.37-3.142-131.16 16.491-186.73 43.571-52.23 25.454-98.28 57.105-143.75 92.229-43.9 33.92-90.49 64.635-133.76 99.286-46.98 37.627-96.27 76.436-133.92 122.445-15.7 19.191-29.59 39.511-45.47 58.608-28.97 34.825-61.74 67.105-88.42 103.495-84.7 115.5-138.32 246.71-245.71 348.76-63.102 59.97-139.936 99.24-216.28 141.27M2019.2 456.821l-4.15 1.622c-54.68 21.337-110.05 42.944-162.07 70.067-47.32 24.675-92.65 52.912-138.9 79.383-33.66 19.262-67.99 37.448-101.5 56.937-31.76 18.477-61.04 40.092-93.54 57.532-32.61 17.503-70.24 23.49-104.62 37.135-34.07 13.524-69.06 30.847-99.99 50.278-43.69 27.458-55.18 85.099-80.91 124.403-18.17 27.754-44.37 50.389-60.75 79.232-14.24 25.06-29.01 50.95-42.53 76.26-14.76 27.62-23.21 55.83-40.79 82.39-6.69 10.11-11.73 20.59-17.44 31.08-5.86 10.79-17.29 19.93-24.83 29.83-14.83 19.46-26.58 40.01-38.49 60.92-7.01 12.28-16.644 20.07-25.585 30.85-8.387 10.12-16.4 21.1-26.216 30.08-15.901 14.53-35.927 24.27-53.127 37.31-40.841 30.97-84.118 54.43-130.122 77.88-48.812 24.89-97.421 49.89-133.734 90.1M1929.34 393.299c-36.01 14.056-68.62 34.235-104.22 48.676-30.51 12.374-59.94 27.037-90.22 39.95-24.68 10.529-47.71 13.313-73.2 19.985-50.23 13.152-99.91 27.297-150.48 39.195-40.35 9.494-83.3 17.356-122.34 31.318-31.73 11.352-57.95 25.221-86.43 42.914-25.03 15.553-35.94 40.885-58.96 58.988-23.34 18.365-44.25 38.211-68.89 55.017-10.16 6.931-18.33 14.072-30.21 18.157-20.38 7.008-40.42 10.42-59.73 20.8-26.58 14.281-69.07 35.389-81.58 62.929-32.16 70.797-32.212 147.318-36.606 220.652-2.278 38.03-26.981 81.59-51.749 111.99-29.143 35.77-60.312 70.56-94.901 102.03-30.045 27.34-68.912 41.7-94.506 73.16-32.09 39.44-53.619 84.16-78.76 126.96-11.848 20.18-34.689 31.77-54.928 43.65-27.447 16.11-52.458 30.13-82.89 40.2-41.112 13.6-81.533 29.25-116.556 54.97-19.817 14.55-36.584 35.46-54.636 51.97M1940.34 285.083c-53.12 24.238-105.88 35.244-161.28 51.106-56.23 16.103-111.3 35.817-168.04 50.193-109.51 27.749-233.13 43.206-330.37 106.155-69.43 44.942-117.29 112.904-184.94 160.121-29.53 20.61-56.33 40.266-83.67 63.452-48.014 40.714-104.603 71.029-153.662 110.606-62.57 50.476-110.366 122.063-131.572 195.394-21.589 74.66-34.961 148.7-73.339 219.16-18.558 34.07-35.66 69.88-57.421 102.5-15.406 23.1-39.595 38.53-63.022 54.06-34.124 22.61-67.886 44.62-99.532 70.38-55.178 44.91-104.186 90.42-165.551 128.13-48.012 29.5-102.933 56.82-142.712 96.56-12.351 12.34-22.367 28.85-31.773 43.19" stroke="#82D9FF" stroke-width="3.2" stroke-linecap="round"/>
  </g>
  <g filter="url(#m)">
    <path d="M2227.78 801.766c-38.14-21.817-80.81-32.455-126.38-37.127-34.66-3.553-95.16-10.981-119.21 24.176-16.09 23.512-27.02 50.11-41.22 74.564-8.97 15.447-16.17 28.054-14.51 45.337 4.29 44.483-22.42 72.202-44.85 109.884-13.32 22.38-27.3 44.8-46.92 63.32-38.72 36.55-85.27 48.37-134.86 64.48m448.61-494.867c-69.68-11.378-155.74-11.786-219.64 28.289-33.81 21.2-50.79 53.295-72.06 83.938-24.91 35.875-59.12 66.694-86.79 100.936-25.88 32.029-50.8 64.013-80.12 93.598-36.59 36.929-83.47 62.896-119.61 101.016-23.15 24.43-44.05 49.4-72.18 69.33-41.69 29.55-89.74 49.75-130.26 80.89-65.72 50.53-115 120.88-170.11 180.84m829.55-822.094c-61.37-3.142-131.16 16.491-186.73 43.571-52.23 25.454-98.28 57.105-143.75 92.229-43.9 33.92-90.49 64.635-133.76 99.286-46.98 37.627-96.27 76.436-133.92 122.445-15.7 19.191-29.59 39.511-45.47 58.608-28.97 34.825-61.74 67.105-88.42 103.495-84.7 115.5-138.32 246.71-245.71 348.76-63.102 59.97-139.936 99.24-216.28 141.27M2019.2 456.821l-4.15 1.622c-54.68 21.337-110.05 42.944-162.07 70.067-47.32 24.675-92.65 52.912-138.9 79.383-33.66 19.262-67.99 37.448-101.5 56.937-31.76 18.477-61.04 40.092-93.54 57.532-32.61 17.503-70.24 23.49-104.62 37.135-34.07 13.524-69.06 30.847-99.99 50.278-43.69 27.458-55.18 85.099-80.91 124.403-18.17 27.754-44.37 50.389-60.75 79.232-14.24 25.06-29.01 50.95-42.53 76.26-14.76 27.62-23.21 55.83-40.79 82.39-6.69 10.11-11.73 20.59-17.44 31.08-5.86 10.79-17.29 19.93-24.83 29.83-14.83 19.46-26.58 40.01-38.49 60.92-7.01 12.28-16.644 20.07-25.585 30.85-8.387 10.12-16.4 21.1-26.216 30.08-15.901 14.53-35.927 24.27-53.127 37.31-40.841 30.97-84.118 54.43-130.122 77.88-48.812 24.89-97.421 49.89-133.734 90.1M1929.34 393.299c-36.01 14.056-68.62 34.235-104.22 48.676-30.51 12.374-59.94 27.037-90.22 39.95-24.68 10.529-47.71 13.313-73.2 19.985-50.23 13.152-99.91 27.297-150.48 39.195-40.35 9.494-83.3 17.356-122.34 31.318-31.73 11.352-57.95 25.221-86.43 42.914-25.03 15.553-35.94 40.885-58.96 58.988-23.34 18.365-44.25 38.211-68.89 55.017-10.16 6.931-18.33 14.072-30.21 18.157-20.38 7.008-40.42 10.42-59.73 20.8-26.58 14.281-69.07 35.389-81.58 62.929-32.16 70.797-32.212 147.318-36.606 220.652-2.278 38.03-26.981 81.59-51.749 111.99-29.143 35.77-60.312 70.56-94.901 102.03-30.045 27.34-68.912 41.7-94.506 73.16-32.09 39.44-53.619 84.16-78.76 126.96-11.848 20.18-34.689 31.77-54.928 43.65-27.447 16.11-52.458 30.13-82.89 40.2-41.112 13.6-81.533 29.25-116.556 54.97-19.817 14.55-36.584 35.46-54.636 51.97M1940.34 285.083c-53.12 24.238-105.88 35.244-161.28 51.106-56.23 16.103-111.3 35.817-168.04 50.193-109.51 27.749-233.13 43.206-330.37 106.155-69.43 44.942-117.29 112.904-184.94 160.121-29.53 20.61-56.33 40.266-83.67 63.452-48.014 40.714-104.603 71.029-153.662 110.606-62.57 50.476-110.366 122.063-131.572 195.394-21.589 74.66-34.961 148.7-73.339 219.16-18.558 34.07-35.66 69.88-57.421 102.5-15.406 23.1-39.595 38.53-63.022 54.06-34.124 22.61-67.886 44.62-99.532 70.38-55.178 44.91-104.186 90.42-165.551 128.13-48.012 29.5-102.933 56.82-142.712 96.56-12.351 12.34-22.367 28.85-31.773 43.19" stroke="#fff" stroke-width="1.6" stroke-linecap="round"/>
  </g>
  <defs>
    <filter id="a" x="-961.106" y="-942.309" width="2291.38" height="2342.77" filterUnits="userSpaceOnUse" color-interpolation-filters="sRGB">
      <feFlood flood-opacity="0" result="BackgroundImageFix"/>
      <feBlend in="SourceGraphic" in2="BackgroundImageFix" result="shape"/>
      <feGaussianBlur stdDeviation="322.5" result="effect1_foregroundBlur_72_277"/>
    </filter>
    <filter id="b" x="-852.301" y="-815.044" width="1810.48" height="2089.05" filterUnits="userSpaceOnUse" color-interpolation-filters="sRGB">
      <feFlood flood-opacity="0" result="BackgroundImageFix"/>
      <feBlend in="SourceGraphic" in2="BackgroundImageFix" result="shape"/>
      <feGaussianBlur stdDeviation="307.5" result="effect1_foregroundBlur_72_277"/>
    </filter>
    <filter id="c" x="-247.823" y="-142.974" width="597.058" height="743.849" filterUnits="userSpaceOnUse" color-interpolation-filters="sRGB">
      <feFlood flood-opacity="0" result="BackgroundImageFix"/>
      <feBlend in="SourceGraphic" in2="BackgroundImageFix" result="shape"/>
      <feGaussianBlur stdDeviation="18" result="effect1_foregroundBlur_72_277"/>
    </filter>
    <filter id="d" x="-224.623" y="-119.775" width="550.657" height="697.449" filterUnits="userSpaceOnUse" color-interpolation-filters="sRGB">
      <feFlood flood-opacity="0" result="BackgroundImageFix"/>
      <feBlend in="SourceGraphic" in2="BackgroundImageFix" result="shape"/>
      <feGaussianBlur stdDeviation="6" result="effect1_foregroundBlur_72_277"/>
    </filter>
    <filter id="e" x="-227.423" y="-110.574" width="556.258" height="703.049" filterUnits="userSpaceOnUse" color-interpolation-filters="sRGB">
      <feFlood flood-opacity="0" result="BackgroundImageFix"/>
      <feColorMatrix in="SourceAlpha" values="0 0 0 0 0 0 0 0 0 0 0 0 0 0 0 0 0 0 127 0" result="hardAlpha"/>
      <feOffset dy="5.2"/>
      <feGaussianBlur stdDeviation="2"/>
      <feColorMatrix values="0 0 0 0 0 0 0 0 0 0.051 0 0 0 0 0.082 0 0 0 0.7 0"/>
      <feBlend mode="multiply" in2="BackgroundImageFix" result="effect1_dropShadow_72_277"/>
      <feColorMatrix in="SourceAlpha" values="0 0 0 0 0 0 0 0 0 0 0 0 0 0 0 0 0 0 127 0" result="hardAlpha"/>
      <feOffset dy="12"/>
      <feGaussianBlur stdDeviation="7.8"/>
      <feColorMatrix values="0 0 0 0 0 0 0 0 0 0.4 0 0 0 0 1 0 0 0 1 0"/>
      <feBlend mode="color-dodge" in2="effect1_dropShadow_72_277" result="effect2_dropShadow_72_277"/>
      <feBlend in="SourceGraphic" in2="effect2_dropShadow_72_277" result="shape"/>
      <feColorMatrix in="SourceAlpha" values="0 0 0 0 0 0 0 0 0 0 0 0 0 0 0 0 0 0 127 0" result="hardAlpha"/>
      <feOffset dx="-.52" dy="1.04"/>
      <feGaussianBlur stdDeviation=".26"/>
      <feComposite in2="hardAlpha" operator="arithmetic" k2="-1" k3="1"/>
      <feColorMatrix values="0 0 0 0 1 0 0 0 0 1 0 0 0 0 1 0 0 0 0.5 0"/>
      <feBlend in2="shape" result="effect3_innerShadow_72_277"/>
    </filter>
    <filter id="f" x="-211.623" y="-106.774" width="524.659" height="671.448" filterUnits="userSpaceOnUse" color-interpolation-filters="sRGB">
      <feFlood flood-opacity="0" result="BackgroundImageFix"/>
      <feBlend in="SourceGraphic" in2="BackgroundImageFix" result="shape"/>
      <feGaussianBlur stdDeviation=".4" result="effect1_foregroundBlur_72_277"/>
    </filter>
    <filter id="g" x="-210.556" y="-105.707" width="522.526" height="669.315" filterUnits="userSpaceOnUse" color-interpolation-filters="sRGB">
      <feFlood flood-opacity="0" result="BackgroundImageFix"/>
      <feBlend in="SourceGraphic" in2="BackgroundImageFix" result="shape"/>
      <feGaussianBlur stdDeviation=".267" result="effect1_foregroundBlur_72_277"/>
    </filter>
    <filter id="h" x="-960.493" y="-383.028" width="4053.4" height="2820.17" filterUnits="userSpaceOnUse" color-interpolation-filters="sRGB">
      <feFlood flood-opacity="0" result="BackgroundImageFix"/>
      <feBlend in="SourceGraphic" in2="BackgroundImageFix" result="shape"/>
      <feGaussianBlur stdDeviation="356" result="effect1_foregroundBlur_72_277"/>
    </filter>
    <filter id="i" x="54.855" y="246.483" width="2211.52" height="1528.21" filterUnits="userSpaceOnUse" color-interpolation-filters="sRGB">
      <feFlood flood-opacity="0" result="BackgroundImageFix"/>
      <feBlend in="SourceGraphic" in2="BackgroundImageFix" result="shape"/>
      <feGaussianBlur stdDeviation="18" result="effect1_foregroundBlur_72_277"/>
    </filter>
    <filter id="j" x="78.055" y="269.682" width="2165.12" height="1481.81" filterUnits="userSpaceOnUse" color-interpolation-filters="sRGB">
      <feFlood flood-opacity="0" result="BackgroundImageFix"/>
      <feBlend in="SourceGraphic" in2="BackgroundImageFix" result="shape"/>
      <feGaussianBlur stdDeviation="6" result="effect1_foregroundBlur_72_277"/>
    </filter>
    <filter id="k" x="75.255" y="278.883" width="2170.72" height="1487.41" filterUnits="userSpaceOnUse" color-interpolation-filters="sRGB">
      <feFlood flood-opacity="0" result="BackgroundImageFix"/>
      <feColorMatrix in="SourceAlpha" values="0 0 0 0 0 0 0 0 0 0 0 0 0 0 0 0 0 0 127 0" result="hardAlpha"/>
      <feOffset dy="5.2"/>
      <feGaussianBlur stdDeviation="2"/>
      <feColorMatrix values="0 0 0 0 0 0 0 0 0 0.051 0 0 0 0 0.082 0 0 0 0.7 0"/>
      <feBlend mode="multiply" in2="BackgroundImageFix" result="effect1_dropShadow_72_277"/>
      <feColorMatrix in="SourceAlpha" values="0 0 0 0 0 0 0 0 0 0 0 0 0 0 0 0 0 0 127 0" result="hardAlpha"/>
      <feOffset dy="12"/>
      <feGaussianBlur stdDeviation="7.8"/>
      <feColorMatrix values="0 0 0 0 0 0 0 0 0 0.4 0 0 0 0 1 0 0 0 1 0"/>
      <feBlend mode="color-dodge" in2="effect1_dropShadow_72_277" result="effect2_dropShadow_72_277"/>
      <feBlend in="SourceGraphic" in2="effect2_dropShadow_72_277" result="shape"/>
      <feColorMatrix in="SourceAlpha" values="0 0 0 0 0 0 0 0 0 0 0 0 0 0 0 0 0 0 127 0" result="hardAlpha"/>
      <feOffset dx="-.52" dy="1.04"/>
      <feGaussianBlur stdDeviation=".26"/>
      <feComposite in2="hardAlpha" operator="arithmetic" k2="-1" k3="1"/>
      <feColorMatrix values="0 0 0 0 1 0 0 0 0 1 0 0 0 0 1 0 0 0 0.5 0"/>
      <feBlend in2="shape" result="effect3_innerShadow_72_277"/>
    </filter>
    <filter id="l" x="91.056" y="282.683" width="2139.12" height="1455.81" filterUnits="userSpaceOnUse" color-interpolation-filters="sRGB">
      <feFlood flood-opacity="0" result="BackgroundImageFix"/>
      <feBlend in="SourceGraphic" in2="BackgroundImageFix" result="shape"/>
      <feGaussianBlur stdDeviation=".4" result="effect1_foregroundBlur_72_277"/>
    </filter>
    <filter id="m" x="92.122" y="283.75" width="2136.99" height="1453.68" filterUnits="userSpaceOnUse" color-interpolation-filters="sRGB">
      <feFlood flood-opacity="0" result="BackgroundImageFix"/>
      <feBlend in="SourceGraphic" in2="BackgroundImageFix" result="shape"/>
      <feGaussianBlur stdDeviation=".267" result="effect1_foregroundBlur_72_277"/>
    </filter>
  </defs>
</svg>