<svg width="32" height="16" viewBox="0 0 32 16" fill="none" xmlns="http://www.w3.org/2000/svg">
    <path d="M16 13.3733L2.04485 0.949654C1.93239 0.847368 1.79887 0.766503 1.65202 0.711738C1.50518 0.656973 1.34792 0.629393 1.18934 0.630598C1.03077 0.631803 0.874035 0.661769 0.728204 0.718759C0.582372 0.775749 0.450343 0.858632 0.339754 0.962613C0.229166 1.0666 0.142215 1.18961 0.0839342 1.32454C0.025653 1.45946 -0.00280173 1.60363 0.000216875 1.74868C0.00323548 1.89374 0.0376675 2.03681 0.10152 2.16961C0.165373 2.30241 0.257378 2.4223 0.372212 2.52236L15.1637 15.6892C15.3876 15.8885 15.6876 16 16 16C16.3124 16 16.6124 15.8885 16.8363 15.6892L31.6278 2.52236C31.7426 2.4223 31.8346 2.30241 31.8985 2.16961C31.9623 2.03681 31.9968 1.89374 31.9998 1.74868C32.0028 1.60363 31.9743 1.45946 31.9161 1.32453C31.8578 1.18961 31.7708 1.06659 31.6602 0.962611C31.5497 0.85863 31.4176 0.775747 31.2718 0.718757C31.126 0.661767 30.9692 0.631802 30.8107 0.630596C30.6521 0.629391 30.4948 0.656971 30.348 0.711736C30.2011 0.766501 30.0676 0.847366 29.9552 0.949653L16 13.3733Z" fill="white"/>
</svg>