<svg width="22" height="13" viewBox="0 0 22 13" fill="none" xmlns="http://www.w3.org/2000/svg">
    <path d="M12.8523 11.1477C12.721 11.1478 12.5909 11.122 12.4696 11.0718C12.3482 11.0215 12.238 10.9477 12.1453 10.8547L8.30529 7.01471C8.20978 6.92246 8.1336 6.81212 8.08119 6.69012C8.02878 6.56811 8.00119 6.43689 8.00004 6.30411C7.99888 6.17133 8.02419 6.03965 8.07447 5.91676C8.12475 5.79386 8.199 5.68221 8.29289 5.58832C8.38679 5.49442 8.49844 5.42017 8.62133 5.36989C8.74423 5.31961 8.87591 5.29431 9.00869 5.29546C9.14147 5.29662 9.27269 5.3242 9.39469 5.37661C9.5167 5.42902 9.62704 5.5052 9.71929 5.60071L12.8523 8.73371L20.3053 1.28071C20.4939 1.09855 20.7465 0.997759 21.0087 1.00004C21.2709 1.00232 21.5217 1.10749 21.7071 1.29289C21.8925 1.4783 21.9977 1.72911 22 1.99131C22.0022 2.25351 21.9014 2.50611 21.7193 2.69471L13.5593 10.8547C13.4665 10.9477 13.3564 11.0215 13.235 11.0718C13.1137 11.122 12.9836 11.1478 12.8523 11.1477Z" fill="white"/>
    <path d="M5.85229 11.6477C6.04931 11.6478 6.24443 11.6091 6.42645 11.5337C6.60854 11.4582 6.77394 11.3475 6.91315 11.208C6.91322 11.2079 6.91328 11.2078 6.91334 11.2078L15.0728 3.04827L15.0729 3.04832L15.0789 3.04207C15.3522 2.75916 15.5034 2.38026 15.4999 1.98697C15.4965 1.59367 15.3388 1.21745 15.0607 0.93934C14.7825 0.661228 14.4063 0.503474 14.013 0.500057C13.6197 0.496639 13.2408 0.64783 12.9579 0.921067L12.9579 0.921013L12.9517 0.927158L5.85229 8.02661L3.0756 5.24992C2.93791 5.10826 2.77358 4.99519 2.59204 4.9172C2.40903 4.83859 2.2122 4.79721 2.01303 4.79548C1.81387 4.79375 1.61635 4.8317 1.432 4.90712C1.24766 4.98254 1.08018 5.09392 0.93934 5.23476C0.798501 5.3756 0.687121 5.54308 0.6117 5.72742C0.536278 5.91177 0.498326 6.10929 0.500057 6.30846C0.501787 6.50763 0.543167 6.70446 0.62178 6.88746C0.699766 7.06901 0.812844 7.23334 0.954504 7.37103L4.79124 11.2078C4.79133 11.2079 4.79143 11.208 4.79152 11.2081C4.93071 11.3476 5.09608 11.4582 5.27813 11.5337C5.46015 11.6091 5.65527 11.6478 5.85229 11.6477ZM5.85229 11.6477C5.85212 11.6477 5.85194 11.6477 5.85177 11.6477L5.85229 11.1477L5.8528 11.6477C5.85263 11.6477 5.85246 11.6477 5.85229 11.6477Z" fill="white" stroke="#2E3485"/>
</svg>