<svg width="24" height="20" viewBox="0 0 24 20" fill="none" xmlns="http://www.w3.org/2000/svg">
    <path d="M24 4.41875V16.25C24.0001 17.2065 23.6492 18.1269 23.0193 18.8228C22.3893 19.5188 21.5279 19.9376 20.6112 19.9938L20.4 20H3.6C2.68175 20.0001 1.79818 19.6346 1.13009 18.9784C0.461992 18.3222 0.059871 17.4249 0.00600014 16.47L0 16.25V4.41875L11.334 12.29L11.4732 12.3725C11.6372 12.456 11.8174 12.4994 12 12.4994C12.1826 12.4994 12.3628 12.456 12.5268 12.3725L12.666 12.29L24 4.41875Z" fill="white"/>
    <path d="M20.4 0C21.696 0 22.8324 0.7125 23.466 1.78375L12 9.74625L0.534 1.78375C0.834876 1.27471 1.24826 0.848002 1.73965 0.539228C2.23104 0.230455 2.7862 0.0485703 3.3588 0.00874996L3.6 0H20.4Z" fill="white"/>
</svg>