<svg width="24" height="23" viewBox="0 0 24 23" fill="none" xmlns="http://www.w3.org/2000/svg">
    <path fill-rule="evenodd" clip-rule="evenodd" d="M5.77463 2.70654V4.56754L3.55454 4.7484C2.79183 4.80978 2.07172 5.12512 1.50936 5.64401C0.946999 6.16289 0.574855 6.85535 0.452431 7.61067C0.398698 7.94879 0.347586 8.28692 0.303027 8.62636C0.292419 8.70842 0.308153 8.79174 0.347961 8.86429C0.387768 8.93684 0.449591 8.99487 0.524512 9.03001L0.625426 9.07719C7.74048 12.4453 16.2605 12.4453 23.3742 9.07719L23.4751 9.03001C23.5498 8.99467 23.6113 8.93655 23.6509 8.86402C23.6904 8.79149 23.706 8.70828 23.6953 8.62636C23.6509 8.28709 23.6015 7.94849 23.5472 7.61067C23.4248 6.85535 23.0526 6.16289 22.4903 5.64401C21.9279 5.12512 21.2078 4.80978 20.4451 4.7484L18.225 4.56885V2.70785C18.2251 2.15853 18.0281 1.62741 17.6697 1.21108C17.3114 0.794754 16.8155 0.520879 16.2722 0.439265L14.6734 0.199432C12.9009 -0.0664775 11.0987 -0.0664775 9.32626 0.199432L7.72737 0.439265C7.18437 0.520845 6.68866 0.794531 6.33032 1.21058C5.97199 1.62664 5.77481 2.15745 5.77463 2.70654ZM14.3811 2.143C12.8024 1.90622 11.1972 1.90622 9.61851 2.143L8.01963 2.38283C7.94205 2.39444 7.87122 2.43349 7.81999 2.49289C7.76877 2.5523 7.74055 2.6281 7.74047 2.70654V4.42993C10.5777 4.2674 13.4219 4.2674 16.2591 4.42993V2.70654C16.2591 2.6281 16.2308 2.5523 16.1796 2.49289C16.1284 2.43349 16.0576 2.39444 15.98 2.38283L14.3811 2.143Z" fill="white"/>
    <path d="M23.9495 11.3679C23.9469 11.3256 23.9341 11.2845 23.9121 11.2481C23.8901 11.2118 23.8596 11.1814 23.8232 11.1595C23.7869 11.1376 23.7457 11.1248 23.7034 11.1223C23.661 11.1198 23.6186 11.1277 23.5799 11.1451C16.2788 14.3783 7.72081 14.3783 0.419665 11.1451C0.380981 11.1277 0.33863 11.1198 0.296252 11.1223C0.253875 11.1248 0.212739 11.1376 0.176383 11.1595C0.140026 11.1814 0.109538 11.2118 0.0875377 11.2481C0.0655379 11.2845 0.0526853 11.3256 0.0500856 11.3679C-0.0838516 13.877 0.0510302 16.3932 0.452429 18.8735C0.574853 19.6288 0.946997 20.3213 1.50936 20.8402C2.07172 21.3591 2.79182 21.6744 3.55453 21.7358L6.00791 21.935C9.99595 22.2561 14.0023 22.2561 17.9917 21.935L20.4451 21.7371C21.208 21.6757 21.9282 21.3601 22.4906 20.841C23.053 20.3218 23.425 19.6291 23.5472 18.8735C23.9482 16.39 24.0845 13.8737 23.9495 11.3692V11.3679Z" fill="white"/>
</svg>